<svg width="121" height="121" viewBox="0 0 121 121" fill="none" xmlns="http://www.w3.org/2000/svg">
<path fill-rule="evenodd" clip-rule="evenodd" d="M80.5002 40C81.8873 41.5773 82.9347 42.8546 84.3002 44.4074C84.1664 44.5688 84.0548 44.7148 83.9328 44.8497C78.6306 50.713 73.3298 56.5777 68.0241 62.4369C64.5697 66.252 61.1061 70.057 57.6501 73.8703C56.1159 75.5631 54.5913 77.2662 53.0594 78.9615C52.8805 79.1594 52.6927 79.3508 52.4922 79.5213C51.3828 80.4648 50.4815 80.4912 49.3323 79.6056C49.0775 79.4095 48.8366 79.1842 48.6164 78.9426C44.3609 74.2721 40.1094 69.5974 35.8574 64.923C35.7888 64.8476 35.7251 64.7667 35.7002 64.7373C37.0927 63.2184 38.4732 61.7124 39.8588 60.2008C43.4493 64.148 47.1287 68.193 50.837 72.2698C60.6468 61.4071 70.398 50.6089 80.2043 39.75" fill="#52CF70"/>
<path fill-rule="evenodd" clip-rule="evenodd" d="M0 60.5C0 27.0868 27.0868 0 60.5 0C93.9132 0 121 27.0868 121 60.5C121 93.9132 93.9132 121 60.5 121C27.0868 121 0 93.9132 0 60.5ZM60.5 9C32.0573 9 9 32.0573 9 60.5C9 88.9427 32.0573 112 60.5 112C88.9427 112 112 88.9427 112 60.5C112 32.0573 88.9427 9 60.5 9Z" fill="#52CF70"/>
</svg>
