<svg width="20" height="20" viewBox="0 0 20 20" fill="none" xmlns="http://www.w3.org/2000/svg">
<g clip-path="url(#clip0)">
<path d="M3.76477 16.7716H5.15264V15.1789C7.1786 15.0019 8.5505 13.8274 8.5505 12.0738V12.0416C8.5505 10.3202 7.5136 9.33881 5.08883 8.72745V5.67067C5.83859 5.83156 6.55645 6.16941 7.25836 6.70033L8.15169 5.18802C7.27431 4.5284 6.31716 4.11011 5.15264 3.96531V3.00002H3.76477V3.93314C1.77072 4.09402 0.414763 5.26847 0.414763 7.006V7.03818C0.414763 8.84007 1.49953 9.72493 3.82858 10.3363V13.4896C2.79168 13.3287 1.93024 12.8461 1.02096 12.106L0 13.57C1.08477 14.4388 2.37691 15.0019 3.76477 15.1628V16.7716ZM3.82858 8.3896C2.60025 8.01957 2.29715 7.58518 2.29715 6.92556V6.89338C2.29715 6.1855 2.82358 5.6385 3.82858 5.55806V8.3896ZM5.08883 13.5539V10.642C6.33312 11.012 6.66812 11.4464 6.66812 12.1543V12.1864C6.66812 12.9587 6.09383 13.4735 5.08883 13.5539Z" fill="white"/>
<path d="M3.76477 16.7716H5.15264V15.1789C7.1786 15.0019 8.5505 13.8274 8.5505 12.0738V12.0416C8.5505 10.3202 7.5136 9.33881 5.08883 8.72745V5.67067C5.83859 5.83156 6.55645 6.16941 7.25836 6.70033L8.15169 5.18802C7.27431 4.5284 6.31716 4.11011 5.15264 3.96531V3.00002H3.76477V3.93314C1.77072 4.09402 0.414763 5.26847 0.414763 7.006V7.03818C0.414763 8.84007 1.49953 9.72493 3.82858 10.3363V13.4896C2.79168 13.3287 1.93024 12.8461 1.02096 12.106L0 13.57C1.08477 14.4388 2.37691 15.0019 3.76477 15.1628V16.7716ZM3.82858 8.3896C2.60025 8.01957 2.29715 7.58518 2.29715 6.92556V6.89338C2.29715 6.1855 2.82358 5.6385 3.82858 5.55806V8.3896ZM5.08883 13.5539V10.642C6.33312 11.012 6.66812 11.4464 6.66812 12.1543V12.1864C6.66812 12.9587 6.09383 13.4735 5.08883 13.5539Z" fill="#333333"/>
<path d="M19.8354 9.93327C19.8297 9.79087 19.7697 9.62628 19.6697 9.52248L16.4054 6.13657C16.1842 5.94253 15.76 5.86242 15.5128 6.08678C15.2693 6.30775 15.2765 6.73631 15.5191 6.95815L17.8143 9.33577H11.0626C10.7246 9.33577 10.4506 9.60328 10.4506 9.93327C10.4506 10.2633 10.7246 10.5308 11.0626 10.5308H17.8143L15.5191 12.9084C15.3103 13.1126 15.2717 13.5563 15.5128 13.7798C15.7539 14.0032 16.1933 13.9318 16.4054 13.7299L19.6697 10.3441C19.7814 10.2282 19.8358 10.0922 19.8354 9.93327Z" fill="white"/>
<path d="M19.8354 9.93327C19.8297 9.79087 19.7697 9.62628 19.6697 9.52248L16.4054 6.13657C16.1842 5.94253 15.76 5.86242 15.5128 6.08678C15.2693 6.30775 15.2765 6.73631 15.5191 6.95815L17.8143 9.33577H11.0626C10.7246 9.33577 10.4506 9.60328 10.4506 9.93327C10.4506 10.2633 10.7246 10.5308 11.0626 10.5308H17.8143L15.5191 12.9084C15.3103 13.1126 15.2717 13.5563 15.5128 13.7798C15.7539 14.0032 16.1933 13.9318 16.4054 13.7299L19.6697 10.3441C19.7814 10.2282 19.8358 10.0922 19.8354 9.93327Z" fill="#333333"/>
</g>
<defs>
<clipPath id="clip0">
<path d="M0 0H20V20H0V0Z" fill="white"/>
</clipPath>
</defs>
</svg>
