<svg width="20" height="20" viewBox="0 0 20 20" fill="none" xmlns="http://www.w3.org/2000/svg">
<path fill-rule="evenodd" clip-rule="evenodd" d="M10 18.3333C14.6024 18.3333 18.3333 14.6024 18.3333 10C18.3333 5.39763 14.6024 1.66667 10 1.66667C5.39763 1.66667 1.66667 5.39763 1.66667 10C1.66667 14.6024 5.39763 18.3333 10 18.3333ZM10 20C15.5228 20 20 15.5228 20 10C20 4.47715 15.5228 0 10 0C4.47715 0 0 4.47715 0 10C0 15.5228 4.47715 20 10 20Z" fill="#333333"/>
<path d="M11.266 13.2192C11.4832 13.2192 11.6768 13.172 11.8468 13.0776L11.776 14.6784C11.3321 15.0467 10.8268 15.2309 10.2602 15.2309C9.40072 15.2309 8.8435 15.0326 8.5885 14.6359C8.4185 14.3714 8.3335 14.0928 8.3335 13.8001C8.3335 13.4978 8.35238 13.2334 8.39016 13.0067L9.24016 8.21838H11.6485L10.8552 12.6809C10.8457 12.7376 10.841 12.7895 10.841 12.8367C10.841 13.0917 10.9827 13.2192 11.266 13.2192ZM9.5235 5.90922C9.5235 5.30477 9.65572 4.86561 9.92016 4.59172C10.1941 4.30838 10.6143 4.16672 11.181 4.16672C11.9743 4.16672 12.371 4.51616 12.371 5.21505C12.371 5.81005 12.2341 6.2445 11.9602 6.51838C11.6957 6.79227 11.2754 6.92922 10.6993 6.92922C9.91544 6.92922 9.5235 6.58922 9.5235 5.90922Z" fill="#333333"/>
</svg>
