<svg width="16" height="14" viewBox="0 0 16 14" fill="none" xmlns="http://www.w3.org/2000/svg">
<path fill-rule="evenodd" clip-rule="evenodd" d="M14.6516 0C15.1082 0.545223 15.5505 1.07321 16 1.60995C15.956 1.66577 15.9192 1.71623 15.879 1.76284C14.1335 3.78968 12.3884 5.81697 10.6416 7.84238C9.50437 9.16118 8.3641 10.4765 7.2263 11.7947C6.72121 12.3798 6.21929 12.9685 5.71497 13.5546C5.65608 13.623 5.59425 13.6892 5.52824 13.7481C5.16298 14.0743 4.86629 14.0834 4.48795 13.7772C4.40407 13.7094 4.32475 13.6316 4.25224 13.5481C2.85126 11.9336 1.45159 10.3176 0.0517707 8.70178C0.0291742 8.6757 0.00820283 8.64775 0 8.63757C0.45843 8.11253 0.912913 7.59196 1.3691 7.06942C2.55116 8.43386 3.76247 9.83215 4.98329 11.2414C8.21289 7.4864 11.4231 3.75369 14.6516 0Z" fill="#2F80ED"/>
</svg>
