<svg width="20" height="20" viewBox="0 0 20 20" fill="none" xmlns="http://www.w3.org/2000/svg">
<mask id="mask0" mask-type="alpha" maskUnits="userSpaceOnUse" x="0" y="0" width="20" height="20">
<path fill-rule="evenodd" clip-rule="evenodd" d="M10 20C15.5228 20 20 15.5228 20 10C20 4.47715 15.5228 0 10 0C4.47715 0 0 4.47715 0 10C0 15.5228 4.47715 20 10 20Z" fill="white"/>
</mask>
<g mask="url(#mask0)">
<path fill-rule="evenodd" clip-rule="evenodd" d="M16.8838 17.2536C18.8032 15.4314 20 12.8555 20 10C20 4.47715 15.5228 0 10 0C4.47715 0 0 4.47715 0 10C0 12.8556 1.19692 15.4316 3.11643 17.2537C4.35525 14.7011 6.97217 12.9412 10.0001 12.9412C13.028 12.9412 15.6449 14.701 16.8838 17.2536ZM10.0001 11.7647C12.2742 11.7647 14.1177 9.92114 14.1177 7.64703C14.1177 5.37292 12.2742 3.52938 10.0001 3.52938C7.72595 3.52938 5.88242 5.37292 5.88242 7.64703C5.88242 9.92114 7.72595 11.7647 10.0001 11.7647Z" fill="white"/>
<path fill-rule="evenodd" clip-rule="evenodd" d="M16.8838 17.2536C18.8032 15.4314 20 12.8555 20 10C20 4.47715 15.5228 0 10 0C4.47715 0 0 4.47715 0 10C0 12.8556 1.19692 15.4316 3.11643 17.2537C4.35525 14.7011 6.97217 12.9412 10.0001 12.9412C13.028 12.9412 15.6449 14.701 16.8838 17.2536ZM10.0001 11.7647C12.2742 11.7647 14.1177 9.92114 14.1177 7.64703C14.1177 5.37292 12.2742 3.52938 10.0001 3.52938C7.72595 3.52938 5.88242 5.37292 5.88242 7.64703C5.88242 9.92114 7.72595 11.7647 10.0001 11.7647Z" fill="#333333"/>
</g>
</svg>
