<svg width="20" height="20" viewBox="0 0 20 20" fill="none" xmlns="http://www.w3.org/2000/svg">
<path fill-rule="evenodd" clip-rule="evenodd" d="M0 10C0 4.4673 4.48693 0 10 0C15.5131 0 20 4.4673 20 10C20 15.5327 15.5131 20 10 20C4.48693 20 0 15.5327 0 10ZM10 1.26951C5.15773 1.26951 1.25 5.18813 1.25 10C1.25 14.8119 5.15773 18.7305 10 18.7305C14.8423 18.7305 18.75 14.8119 18.75 10C18.75 5.18813 14.8423 1.26951 10 1.26951Z" fill="white"/>
<path fill-rule="evenodd" clip-rule="evenodd" d="M0 10C0 4.4673 4.48693 0 10 0C15.5131 0 20 4.4673 20 10C20 15.5327 15.5131 20 10 20C4.48693 20 0 15.5327 0 10ZM10 1.26951C5.15773 1.26951 1.25 5.18813 1.25 10C1.25 14.8119 5.15773 18.7305 10 18.7305C14.8423 18.7305 18.75 14.8119 18.75 10C18.75 5.18813 14.8423 1.26951 10 1.26951Z" fill="#333333"/>
<path d="M9.71818 11.5923H10.9209L11.5939 5.26364V4.97727H9.04523V5.26364L9.71818 11.5923ZM9.15977 15H11.4793V12.7091H9.15977V15Z" fill="#333333"/>
</svg>
