<svg width="20" height="20" viewBox="0 0 20 20" fill="none" xmlns="http://www.w3.org/2000/svg">
<g clip-path="url(#clip0)">
<path fill-rule="evenodd" clip-rule="evenodd" d="M4.29064 0.74521C4.81773 0.248523 5.50832 0 6.1993 0C6.89027 0 7.58086 0.248164 8.10833 0.74521C8.76005 1.35969 9.19949 3.14928 9.43997 4.42601C9.39614 4.67705 9.35918 4.90654 9.32983 5.1037H7.44213H6.50343H5.94051C5.23163 4.8972 4.6104 4.64401 4.29064 4.34269C3.23645 3.34932 3.23645 1.73858 4.29064 0.74521ZM6.2399 3.32416H6.50326H7.26131C7.00444 2.38681 6.79406 2.04778 6.74832 1.98098C6.54747 1.80608 6.31956 1.77915 6.19912 1.77915C6.07374 1.77915 5.83249 1.80824 5.62554 2.00325C5.31683 2.29379 5.30921 2.76211 5.60229 3.06163C5.65031 3.09144 5.82448 3.18876 6.2399 3.32416Z" fill="#323232"/>
<path fill-rule="evenodd" clip-rule="evenodd" d="M13.4362 5.1037H12.4975H10.6101C10.5804 4.90654 10.5438 4.67705 10.5 4.42601C10.7405 3.14964 11.1795 1.35969 11.8316 0.74521C12.3587 0.248523 13.0497 0 13.7403 0C14.4309 0 15.1219 0.248523 15.649 0.74521C16.7031 1.73858 16.7031 3.34932 15.649 4.34269C15.3292 4.64401 14.708 4.8972 13.9991 5.1037H13.4362ZM13.7404 1.77915C13.62 1.77915 13.3921 1.80608 13.1912 1.98098C13.1455 2.04778 12.9351 2.38681 12.6782 3.3238H13.4363H13.6996C14.1151 3.18876 14.2888 3.09108 14.3372 3.06127C14.6303 2.76211 14.6223 2.29343 14.314 2.00289C14.1074 1.80824 13.8658 1.77915 13.7404 1.77915Z" fill="#323232"/>
<path d="M2 11.3179H9V20H2V11.3179Z" fill="#323232"/>
<path d="M10.5 11.3179H18V20H10.5V11.3179Z" fill="#323232"/>
<path d="M1 10.0489H9.5V6.55014V6.05273H1V10.0489Z" fill="#323232"/>
<path d="M10.5 10.0489H19V6.55014V6.05273H10.5V10.0489Z" fill="#323232"/>
</g>
<defs>
<clipPath id="clip0">
<path d="M0 0H20V20H0V0Z" fill="white"/>
</clipPath>
</defs>
</svg>
