<svg width="20" height="20" viewBox="0 0 20 20" fill="none" xmlns="http://www.w3.org/2000/svg">
<path fill-rule="evenodd" clip-rule="evenodd" d="M17.8947 6.99996C19.0574 6.99996 20 6.10453 20 4.99997C20 3.8954 19.0574 2.99997 17.8947 2.99997C16.732 2.99997 15.7894 3.8954 15.7894 4.99997C15.7894 6.10453 16.732 6.99996 17.8947 6.99996Z" fill="white"/>
<path fill-rule="evenodd" clip-rule="evenodd" d="M17.8947 6.99996C19.0574 6.99996 20 6.10453 20 4.99997C20 3.8954 19.0574 2.99997 17.8947 2.99997C16.732 2.99997 15.7894 3.8954 15.7894 4.99997C15.7894 6.10453 16.732 6.99996 17.8947 6.99996Z" fill="#333333"/>
<path fill-rule="evenodd" clip-rule="evenodd" d="M7.36845 6.99996C8.53115 6.99996 9.47371 6.10453 9.47371 4.99997C9.47371 3.8954 8.53115 2.99997 7.36845 2.99997C6.20574 2.99997 5.26318 3.8954 5.26318 4.99997C5.26318 6.10453 6.20574 6.99996 7.36845 6.99996Z" fill="white"/>
<path fill-rule="evenodd" clip-rule="evenodd" d="M7.36845 6.99996C8.53115 6.99996 9.47371 6.10453 9.47371 4.99997C9.47371 3.8954 8.53115 2.99997 7.36845 2.99997C6.20574 2.99997 5.26318 3.8954 5.26318 4.99997C5.26318 6.10453 6.20574 6.99996 7.36845 6.99996Z" fill="#333333"/>
<path fill-rule="evenodd" clip-rule="evenodd" d="M12.6315 6.99996C13.7942 6.99996 14.7368 6.10453 14.7368 4.99997C14.7368 3.8954 13.7942 2.99997 12.6315 2.99997C11.4688 2.99997 10.5262 3.8954 10.5262 4.99997C10.5262 6.10453 11.4688 6.99996 12.6315 6.99996Z" fill="white"/>
<path fill-rule="evenodd" clip-rule="evenodd" d="M12.6315 6.99996C13.7942 6.99996 14.7368 6.10453 14.7368 4.99997C14.7368 3.8954 13.7942 2.99997 12.6315 2.99997C11.4688 2.99997 10.5262 3.8954 10.5262 4.99997C10.5262 6.10453 11.4688 6.99996 12.6315 6.99996Z" fill="#333333"/>
<path fill-rule="evenodd" clip-rule="evenodd" d="M2.10526 6.99996C3.26797 6.99996 4.21053 6.10453 4.21053 4.99997C4.21053 3.8954 3.26797 2.99997 2.10526 2.99997C0.942559 2.99997 0 3.8954 0 4.99997C0 6.10453 0.942559 6.99996 2.10526 6.99996Z" fill="white"/>
<path fill-rule="evenodd" clip-rule="evenodd" d="M2.10526 6.99996C3.26797 6.99996 4.21053 6.10453 4.21053 4.99997C4.21053 3.8954 3.26797 2.99997 2.10526 2.99997C0.942559 2.99997 0 3.8954 0 4.99997C0 6.10453 0.942559 6.99996 2.10526 6.99996Z" fill="#333333"/>
<path fill-rule="evenodd" clip-rule="evenodd" d="M17.8947 10.9813C18.7125 10.9813 19.3147 10.36 19.3147 9.66659C19.3147 8.9732 18.7125 8.35189 17.8947 8.35189C17.0769 8.35189 16.4747 8.9732 16.4747 9.66659C16.4747 10.36 17.0769 10.9813 17.8947 10.9813ZM20 9.66659C20 10.7712 19.0574 11.6666 17.8947 11.6666C16.732 11.6666 15.7894 10.7712 15.7894 9.66659C15.7894 8.56202 16.732 7.6666 17.8947 7.6666C19.0574 7.6666 20 8.56202 20 9.66659Z" fill="white"/>
<path fill-rule="evenodd" clip-rule="evenodd" d="M17.8947 10.9813C18.7125 10.9813 19.3147 10.36 19.3147 9.66659C19.3147 8.9732 18.7125 8.35189 17.8947 8.35189C17.0769 8.35189 16.4747 8.9732 16.4747 9.66659C16.4747 10.36 17.0769 10.9813 17.8947 10.9813ZM20 9.66659C20 10.7712 19.0574 11.6666 17.8947 11.6666C16.732 11.6666 15.7894 10.7712 15.7894 9.66659C15.7894 8.56202 16.732 7.6666 17.8947 7.6666C19.0574 7.6666 20 8.56202 20 9.66659Z" fill="#333333"/>
<path fill-rule="evenodd" clip-rule="evenodd" d="M7.36845 11.6666C8.53115 11.6666 9.47371 10.7712 9.47371 9.66659C9.47371 8.56202 8.53115 7.6666 7.36845 7.6666C6.20574 7.6666 5.26318 8.56202 5.26318 9.66659C5.26318 10.7712 6.20574 11.6666 7.36845 11.6666Z" fill="white"/>
<path fill-rule="evenodd" clip-rule="evenodd" d="M7.36845 11.6666C8.53115 11.6666 9.47371 10.7712 9.47371 9.66659C9.47371 8.56202 8.53115 7.6666 7.36845 7.6666C6.20574 7.6666 5.26318 8.56202 5.26318 9.66659C5.26318 10.7712 6.20574 11.6666 7.36845 11.6666Z" fill="#333333"/>
<path fill-rule="evenodd" clip-rule="evenodd" d="M12.6315 11.6666C13.7942 11.6666 14.7368 10.7712 14.7368 9.66659C14.7368 8.56202 13.7942 7.6666 12.6315 7.6666C11.4688 7.6666 10.5262 8.56202 10.5262 9.66659C10.5262 10.7712 11.4688 11.6666 12.6315 11.6666Z" fill="white"/>
<path fill-rule="evenodd" clip-rule="evenodd" d="M12.6315 11.6666C13.7942 11.6666 14.7368 10.7712 14.7368 9.66659C14.7368 8.56202 13.7942 7.6666 12.6315 7.6666C11.4688 7.6666 10.5262 8.56202 10.5262 9.66659C10.5262 10.7712 11.4688 11.6666 12.6315 11.6666Z" fill="#333333"/>
<path fill-rule="evenodd" clip-rule="evenodd" d="M2.10526 11.6666C3.26797 11.6666 4.21053 10.7712 4.21053 9.66659C4.21053 8.56202 3.26797 7.6666 2.10526 7.6666C0.942559 7.6666 0 8.56202 0 9.66659C0 10.7712 0.942559 11.6666 2.10526 11.6666Z" fill="white"/>
<path fill-rule="evenodd" clip-rule="evenodd" d="M2.10526 11.6666C3.26797 11.6666 4.21053 10.7712 4.21053 9.66659C4.21053 8.56202 3.26797 7.6666 2.10526 7.6666C0.942559 7.6666 0 8.56202 0 9.66659C0 10.7712 0.942559 11.6666 2.10526 11.6666Z" fill="#333333"/>
<path fill-rule="evenodd" clip-rule="evenodd" d="M17.8947 15.6479C18.7125 15.6479 19.3147 15.0266 19.3147 14.3332C19.3147 13.6398 18.7125 13.0185 17.8947 13.0185C17.0769 13.0185 16.4747 13.6398 16.4747 14.3332C16.4747 15.0266 17.0769 15.6479 17.8947 15.6479ZM20 14.3332C20 15.4378 19.0574 16.3332 17.8947 16.3332C16.732 16.3332 15.7894 15.4378 15.7894 14.3332C15.7894 13.2287 16.732 12.3332 17.8947 12.3332C19.0574 12.3332 20 13.2287 20 14.3332Z" fill="white"/>
<path fill-rule="evenodd" clip-rule="evenodd" d="M17.8947 15.6479C18.7125 15.6479 19.3147 15.0266 19.3147 14.3332C19.3147 13.6398 18.7125 13.0185 17.8947 13.0185C17.0769 13.0185 16.4747 13.6398 16.4747 14.3332C16.4747 15.0266 17.0769 15.6479 17.8947 15.6479ZM20 14.3332C20 15.4378 19.0574 16.3332 17.8947 16.3332C16.732 16.3332 15.7894 15.4378 15.7894 14.3332C15.7894 13.2287 16.732 12.3332 17.8947 12.3332C19.0574 12.3332 20 13.2287 20 14.3332Z" fill="#333333"/>
<path fill-rule="evenodd" clip-rule="evenodd" d="M7.36845 16.3332C8.53115 16.3332 9.47371 15.4378 9.47371 14.3332C9.47371 13.2287 8.53115 12.3332 7.36845 12.3332C6.20574 12.3332 5.26318 13.2287 5.26318 14.3332C5.26318 15.4378 6.20574 16.3332 7.36845 16.3332Z" fill="white"/>
<path fill-rule="evenodd" clip-rule="evenodd" d="M7.36845 16.3332C8.53115 16.3332 9.47371 15.4378 9.47371 14.3332C9.47371 13.2287 8.53115 12.3332 7.36845 12.3332C6.20574 12.3332 5.26318 13.2287 5.26318 14.3332C5.26318 15.4378 6.20574 16.3332 7.36845 16.3332Z" fill="#333333"/>
<path fill-rule="evenodd" clip-rule="evenodd" d="M7.36845 15.6479C8.18622 15.6479 8.78841 15.0266 8.78841 14.3332C8.78841 13.6398 8.18622 13.0185 7.36845 13.0185C6.55067 13.0185 5.94848 13.6398 5.94848 14.3332C5.94848 15.0266 6.55067 15.6479 7.36845 15.6479ZM9.47371 14.3332C9.47371 15.4378 8.53115 16.3332 7.36845 16.3332C6.20574 16.3332 5.26318 15.4378 5.26318 14.3332C5.26318 13.2287 6.20574 12.3332 7.36845 12.3332C8.53115 12.3332 9.47371 13.2287 9.47371 14.3332Z" fill="white"/>
<path fill-rule="evenodd" clip-rule="evenodd" d="M7.36845 15.6479C8.18622 15.6479 8.78841 15.0266 8.78841 14.3332C8.78841 13.6398 8.18622 13.0185 7.36845 13.0185C6.55067 13.0185 5.94848 13.6398 5.94848 14.3332C5.94848 15.0266 6.55067 15.6479 7.36845 15.6479ZM9.47371 14.3332C9.47371 15.4378 8.53115 16.3332 7.36845 16.3332C6.20574 16.3332 5.26318 15.4378 5.26318 14.3332C5.26318 13.2287 6.20574 12.3332 7.36845 12.3332C8.53115 12.3332 9.47371 13.2287 9.47371 14.3332Z" fill="#333333"/>
<path fill-rule="evenodd" clip-rule="evenodd" d="M12.6315 15.6479C13.4493 15.6479 14.0515 15.0266 14.0515 14.3332C14.0515 13.6398 13.4493 13.0185 12.6315 13.0185C11.8137 13.0185 11.2115 13.6398 11.2115 14.3332C11.2115 15.0266 11.8137 15.6479 12.6315 15.6479ZM14.7368 14.3332C14.7368 15.4378 13.7942 16.3332 12.6315 16.3332C11.4688 16.3332 10.5262 15.4378 10.5262 14.3332C10.5262 13.2287 11.4688 12.3332 12.6315 12.3332C13.7942 12.3332 14.7368 13.2287 14.7368 14.3332Z" fill="white"/>
<path fill-rule="evenodd" clip-rule="evenodd" d="M12.6315 15.6479C13.4493 15.6479 14.0515 15.0266 14.0515 14.3332C14.0515 13.6398 13.4493 13.0185 12.6315 13.0185C11.8137 13.0185 11.2115 13.6398 11.2115 14.3332C11.2115 15.0266 11.8137 15.6479 12.6315 15.6479ZM14.7368 14.3332C14.7368 15.4378 13.7942 16.3332 12.6315 16.3332C11.4688 16.3332 10.5262 15.4378 10.5262 14.3332C10.5262 13.2287 11.4688 12.3332 12.6315 12.3332C13.7942 12.3332 14.7368 13.2287 14.7368 14.3332Z" fill="#333333"/>
<path fill-rule="evenodd" clip-rule="evenodd" d="M2.10526 16.3332C3.26797 16.3332 4.21053 15.4378 4.21053 14.3332C4.21053 13.2287 3.26797 12.3333 2.10526 12.3333C0.942559 12.3333 0 13.2287 0 14.3332C0 15.4378 0.942559 16.3332 2.10526 16.3332Z" fill="white"/>
<path fill-rule="evenodd" clip-rule="evenodd" d="M2.10526 16.3332C3.26797 16.3332 4.21053 15.4378 4.21053 14.3332C4.21053 13.2287 3.26797 12.3333 2.10526 12.3333C0.942559 12.3333 0 13.2287 0 14.3332C0 15.4378 0.942559 16.3332 2.10526 16.3332Z" fill="#333333"/>
<path fill-rule="evenodd" clip-rule="evenodd" d="M2.10526 15.6479C2.92304 15.6479 3.52523 15.0266 3.52523 14.3332C3.52523 13.6399 2.92304 13.0186 2.10526 13.0186C1.28749 13.0186 0.685299 13.6399 0.685299 14.3332C0.685299 15.0266 1.28749 15.6479 2.10526 15.6479ZM4.21053 14.3332C4.21053 15.4378 3.26797 16.3332 2.10526 16.3332C0.942559 16.3332 0 15.4378 0 14.3332C0 13.2287 0.942559 12.3333 2.10526 12.3333C3.26797 12.3333 4.21053 13.2287 4.21053 14.3332Z" fill="white"/>
<path fill-rule="evenodd" clip-rule="evenodd" d="M2.10526 15.6479C2.92304 15.6479 3.52523 15.0266 3.52523 14.3332C3.52523 13.6399 2.92304 13.0186 2.10526 13.0186C1.28749 13.0186 0.685299 13.6399 0.685299 14.3332C0.685299 15.0266 1.28749 15.6479 2.10526 15.6479ZM4.21053 14.3332C4.21053 15.4378 3.26797 16.3332 2.10526 16.3332C0.942559 16.3332 0 15.4378 0 14.3332C0 13.2287 0.942559 12.3333 2.10526 12.3333C3.26797 12.3333 4.21053 13.2287 4.21053 14.3332Z" fill="#333333"/>
</svg>
