<svg width="20" height="20" viewBox="0 0 20 20" fill="none" xmlns="http://www.w3.org/2000/svg">
<path fill-rule="evenodd" clip-rule="evenodd" d="M19 4.57576H1V14.4242H19V4.57576ZM1 3.59091C0.447715 3.59091 0 4.03184 0 4.57576V14.4242C0 14.9682 0.447715 15.4091 1 15.4091H19C19.5523 15.4091 20 14.9682 20 14.4242V4.57576C20 4.03184 19.5523 3.59091 19 3.59091H1Z" fill="white"/>
<path fill-rule="evenodd" clip-rule="evenodd" d="M19 4.57576H1V14.4242H19V4.57576ZM1 3.59091C0.447715 3.59091 0 4.03184 0 4.57576V14.4242C0 14.9682 0.447715 15.4091 1 15.4091H19C19.5523 15.4091 20 14.9682 20 14.4242V4.57576C20 4.03184 19.5523 3.59091 19 3.59091H1Z" fill="#333333"/>
<path fill-rule="evenodd" clip-rule="evenodd" d="M5 12.8484H2.5V12.0605H5V12.8484Z" fill="white"/>
<path fill-rule="evenodd" clip-rule="evenodd" d="M5 12.8484H2.5V12.0605H5V12.8484Z" fill="#333333"/>
<path fill-rule="evenodd" clip-rule="evenodd" d="M12.5001 12.8484H6.00012V12.0605H12.5001V12.8484Z" fill="white"/>
<path fill-rule="evenodd" clip-rule="evenodd" d="M12.5001 12.8484H6.00012V12.0605H12.5001V12.8484Z" fill="#333333"/>
<g opacity="0.01">
<path fill-rule="evenodd" clip-rule="evenodd" d="M10.5001 12.359H8.50012V11.5651H10.5001V12.359Z" fill="white"/>
<path fill-rule="evenodd" clip-rule="evenodd" d="M10.5001 12.359H8.50012V11.5651H10.5001V12.359Z" fill="#333333"/>
</g>
<path fill-rule="evenodd" clip-rule="evenodd" d="M20 9.00768H0V7.03798H20V9.00768Z" fill="white"/>
<path fill-rule="evenodd" clip-rule="evenodd" d="M20 9.00768H0V7.03798H20V9.00768Z" fill="#333333"/>
</svg>
