<svg width="20" height="20" viewBox="0 0 20 20" fill="none" xmlns="http://www.w3.org/2000/svg">
<g clip-path="url(#clip0)">
<path d="M9.15893 16.0477H10.4738V14.5386C12.3933 14.371 13.6931 13.2583 13.6931 11.5968V11.5663C13.6931 9.93535 12.7107 9.00555 10.4134 8.42633V5.53022C11.1237 5.68265 11.8039 6.00275 12.4689 6.50575L13.3153 5.07294C12.484 4.44799 11.5772 4.05168 10.4738 3.9145V2.99994H9.15893V3.88401C7.26969 4.03644 5.985 5.14916 5.985 6.79536V6.82585C5.985 8.53303 7.01275 9.37137 9.21939 9.9506V12.9382C8.23698 12.7857 7.42083 12.3285 6.55933 11.6273L5.59204 13.0144C6.61979 13.8375 7.84402 14.371 9.15893 14.5234V16.0477ZM9.21939 8.10623C8.05561 7.75565 7.76845 7.3441 7.76845 6.71915V6.68867C7.76845 6.01799 8.26721 5.49974 9.21939 5.42352V8.10623ZM10.4134 12.9991V10.2402C11.5923 10.5908 11.9097 11.0023 11.9097 11.673V11.7035C11.9097 12.4352 11.3656 12.9229 10.4134 12.9991Z" fill="white"/>
<path d="M9.15893 16.0477H10.4738V14.5386C12.3933 14.371 13.6931 13.2583 13.6931 11.5968V11.5663C13.6931 9.93535 12.7107 9.00555 10.4134 8.42633V5.53022C11.1237 5.68265 11.8039 6.00275 12.4689 6.50575L13.3153 5.07294C12.484 4.44799 11.5772 4.05168 10.4738 3.9145V2.99994H9.15893V3.88401C7.26969 4.03644 5.985 5.14916 5.985 6.79536V6.82585C5.985 8.53303 7.01275 9.37137 9.21939 9.9506V12.9382C8.23698 12.7857 7.42083 12.3285 6.55933 11.6273L5.59204 13.0144C6.61979 13.8375 7.84402 14.371 9.15893 14.5234V16.0477ZM9.21939 8.10623C8.05561 7.75565 7.76845 7.3441 7.76845 6.71915V6.68867C7.76845 6.01799 8.26721 5.49974 9.21939 5.42352V8.10623ZM10.4134 12.9991V10.2402C11.5923 10.5908 11.9097 11.0023 11.9097 11.673V11.7035C11.9097 12.4352 11.3656 12.9229 10.4134 12.9991Z" fill="#333333"/>
<path d="M17.9213 6.72788C17.847 6.73086 17.7611 6.76218 17.707 6.81436L15.9405 8.51735C15.8393 8.63275 15.7975 8.85403 15.9145 8.98301C16.0298 9.11006 16.2534 9.10628 16.3691 8.97971L17.6095 7.7823V11.3047C17.6095 11.481 17.7491 11.624 17.9213 11.624C18.0934 11.624 18.233 11.481 18.233 11.3047V7.7823L19.4734 8.97971C19.5799 9.08867 19.8114 9.10881 19.928 8.98301C20.0446 8.85724 20.0073 8.62801 19.902 8.51735L18.1356 6.81436C18.0751 6.75608 18.0042 6.72768 17.9213 6.72788Z" fill="white"/>
<path d="M17.9213 6.72788C17.847 6.73086 17.7611 6.76218 17.707 6.81436L15.9405 8.51735C15.8393 8.63275 15.7975 8.85403 15.9145 8.98301C16.0298 9.11006 16.2534 9.10628 16.3691 8.97971L17.6095 7.7823V11.3047C17.6095 11.481 17.7491 11.624 17.9213 11.624C18.0934 11.624 18.233 11.481 18.233 11.3047V7.7823L19.4734 8.97971C19.5799 9.08867 19.8114 9.10881 19.928 8.98301C20.0446 8.85724 20.0073 8.62801 19.902 8.51735L18.1356 6.81436C18.0751 6.75608 18.0042 6.72768 17.9213 6.72788Z" fill="#333333"/>
<path d="M2.07849 11.6241C2.15278 11.6211 2.23865 11.5897 2.2928 11.5376L4.05924 9.83458C4.16047 9.71918 4.20226 9.4979 4.08521 9.36892C3.96993 9.24187 3.74635 9.24565 3.63061 9.37222L2.39021 10.5696L2.39021 7.04726C2.39021 6.87091 2.25065 6.72795 2.07849 6.72795C1.90634 6.72795 1.76677 6.87091 1.76677 7.04726L1.76677 10.5696L0.526371 9.37222C0.419819 9.26326 0.188375 9.24312 0.0717748 9.36892C-0.0448143 9.49469 -0.00756519 9.72392 0.0977615 9.83458L1.86418 11.5376C1.92463 11.5958 1.99556 11.6242 2.07849 11.6241Z" fill="white"/>
<path d="M2.07849 11.6241C2.15278 11.6211 2.23865 11.5897 2.2928 11.5376L4.05924 9.83458C4.16047 9.71918 4.20226 9.4979 4.08521 9.36892C3.96993 9.24187 3.74635 9.24565 3.63061 9.37222L2.39021 10.5696L2.39021 7.04726C2.39021 6.87091 2.25065 6.72795 2.07849 6.72795C1.90634 6.72795 1.76677 6.87091 1.76677 7.04726L1.76677 10.5696L0.526371 9.37222C0.419819 9.26326 0.188375 9.24312 0.0717748 9.36892C-0.0448143 9.49469 -0.00756519 9.72392 0.0977615 9.83458L1.86418 11.5376C1.92463 11.5958 1.99556 11.6242 2.07849 11.6241Z" fill="#333333"/>
</g>
<defs>
<clipPath id="clip0">
<path d="M0 0H20V20H0V0Z" fill="white"/>
</clipPath>
</defs>
</svg>
