<svg width="20" height="20" viewBox="0 0 20 20" fill="none" xmlns="http://www.w3.org/2000/svg">
<g clip-path="url(#clip0)">
<path fill-rule="evenodd" clip-rule="evenodd" d="M0 10C0 4.4673 4.48693 0 10 0C15.5131 0 20 4.4673 20 10C20 15.5327 15.5131 20 10 20C4.48693 20 0 15.5327 0 10ZM10 1.26951C5.15773 1.26951 1.25 5.18813 1.25 10C1.25 14.8119 5.15773 18.7305 10 18.7305C14.8423 18.7305 18.75 14.8119 18.75 10C18.75 5.18813 14.8423 1.26951 10 1.26951Z" fill="white"/>
<path fill-rule="evenodd" clip-rule="evenodd" d="M0 10C0 4.4673 4.48693 0 10 0C15.5131 0 20 4.4673 20 10C20 15.5327 15.5131 20 10 20C4.48693 20 0 15.5327 0 10ZM10 1.26951C5.15773 1.26951 1.25 5.18813 1.25 10C1.25 14.8119 5.15773 18.7305 10 18.7305C14.8423 18.7305 18.75 14.8119 18.75 10C18.75 5.18813 14.8423 1.26951 10 1.26951Z" fill="#333333"/>
<path d="M9.56181 12.056C9.86369 12.056 10.0737 11.8 10.1262 11.4872L10.1787 10.8332C11.6356 10.563 12.8299 9.75253 12.8299 7.96095V7.93251C12.8299 6.15515 11.5831 5.04608 9.74556 5.04608C8.53806 5.04608 7.65869 5.5153 6.96306 6.22625C6.77931 6.39687 6.70056 6.62438 6.70056 6.83766C6.70056 7.26423 7.02869 7.6197 7.43556 7.6197C7.61931 7.6197 7.78994 7.53439 7.92119 7.42063C8.44619 6.90875 9.01056 6.6386 9.70619 6.6386C10.6512 6.6386 11.2156 7.19313 11.2156 7.98939V8.01783C11.2156 8.91362 10.5331 9.4255 9.29931 9.55347C8.94494 9.59612 8.73494 9.8805 8.78744 10.2644L8.91869 11.4872C8.95806 11.8143 9.18119 12.056 9.48306 12.056H9.56181ZM8.55119 14.0751V14.2173C8.55119 14.7718 8.94494 15.1984 9.48306 15.1984C10.0212 15.1984 10.4149 14.7718 10.4149 14.2173V14.0751C10.4149 13.5205 10.0212 13.094 9.48306 13.094C8.94494 13.094 8.55119 13.5205 8.55119 14.0751Z" fill="white"/>
<path d="M9.56181 12.056C9.86369 12.056 10.0737 11.8 10.1262 11.4872L10.1787 10.8332C11.6356 10.563 12.8299 9.75253 12.8299 7.96095V7.93251C12.8299 6.15515 11.5831 5.04608 9.74556 5.04608C8.53806 5.04608 7.65869 5.5153 6.96306 6.22625C6.77931 6.39687 6.70056 6.62438 6.70056 6.83766C6.70056 7.26423 7.02869 7.6197 7.43556 7.6197C7.61931 7.6197 7.78994 7.53439 7.92119 7.42063C8.44619 6.90875 9.01056 6.6386 9.70619 6.6386C10.6512 6.6386 11.2156 7.19313 11.2156 7.98939V8.01783C11.2156 8.91362 10.5331 9.4255 9.29931 9.55347C8.94494 9.59612 8.73494 9.8805 8.78744 10.2644L8.91869 11.4872C8.95806 11.8143 9.18119 12.056 9.48306 12.056H9.56181ZM8.55119 14.0751V14.2173C8.55119 14.7718 8.94494 15.1984 9.48306 15.1984C10.0212 15.1984 10.4149 14.7718 10.4149 14.2173V14.0751C10.4149 13.5205 10.0212 13.094 9.48306 13.094C8.94494 13.094 8.55119 13.5205 8.55119 14.0751Z" fill="#333333"/>
</g>
<defs>
<clipPath id="clip0">
<path d="M0 0H20V20H0V0Z" fill="white"/>
</clipPath>
</defs>
</svg>
