<svg width="20" height="20" viewBox="0 0 20 20" fill="none" xmlns="http://www.w3.org/2000/svg">
<g clip-path="url(#clip0)">
<path d="M10.0024 0C15.5313 0 20.0048 4.48317 20 10.0192C19.9952 15.5264 15.512 20.0024 9.99761 20C4.47837 19.9976 -0.00720286 15.512 8.68342e-06 10.0048C0.00722022 4.46875 4.47597 0 10.0024 0ZM2.89905 4.88461C1.90385 6.28125 1.35337 7.83654 1.25962 9.5601C2.37501 9.5601 3.47837 9.5601 4.58895 9.5601C4.63943 8.36779 4.85337 7.20913 5.22357 6.09135C4.81732 5.89904 4.42068 5.72596 4.03847 5.52644C3.65866 5.32933 3.28847 5.10577 2.89905 4.88461ZM17.0841 4.8774C17.0385 4.90625 16.9976 4.93029 16.9567 4.95673C16.3149 5.36779 15.6418 5.71635 14.9375 6.00961C14.7668 6.07933 14.7668 6.07933 14.8221 6.25C15.1298 7.21875 15.3245 8.20913 15.387 9.22356C15.3942 9.33654 15.4039 9.45192 15.4135 9.5625C16.5265 9.5625 17.625 9.5625 18.726 9.5625C18.8149 8.35336 17.9471 5.87019 17.0841 4.8774ZM5.20434 13.9327C4.83174 12.7933 4.62982 11.6322 4.58895 10.4399C3.47597 10.4399 2.3726 10.4399 1.26203 10.4399C1.35818 12.1683 1.90626 13.726 2.91347 15.1298C3.64184 14.649 4.40145 14.2572 5.20434 13.9327ZM15.4111 10.4375C15.3702 11.6394 15.1635 12.7981 14.7957 13.9327C15.6058 14.2596 16.363 14.6538 17.089 15.1274C18.0938 13.7187 18.6418 12.1611 18.738 10.4351C17.6226 10.4375 16.524 10.4375 15.4111 10.4375ZM9.56011 13.0192C9.56011 12.149 9.56011 11.2933 9.56011 10.4399C8.18991 10.4399 6.82693 10.4399 5.45434 10.4399C5.4952 11.5361 5.67789 12.5962 6.01924 13.6394C7.17789 13.2668 8.35097 13.0625 9.56011 13.0192ZM10.4399 13.0216C11.649 13.0625 12.8269 13.2692 13.9808 13.6394C14.3221 12.5938 14.5072 11.5312 14.5457 10.4399C13.1683 10.4399 11.8053 10.4399 10.4399 10.4399C10.4399 11.3005 10.4399 12.1562 10.4399 13.0216ZM6.05289 6.37019C5.75241 7.12981 5.40626 9.03606 5.47116 9.5601C6.83414 9.5601 8.19472 9.5601 9.56251 9.5601C9.56251 8.69952 9.56251 7.84375 9.56251 6.98077C8.36299 6.9375 7.19712 6.73317 6.05289 6.37019ZM10.4351 9.55769C11.8101 9.55769 13.1731 9.55769 14.5409 9.55769C14.4904 8.46394 14.2981 7.40625 13.9495 6.37019C12.8005 6.73558 11.6322 6.9375 10.4327 6.98077C10.4351 7.84615 10.4351 8.69952 10.4351 9.55769ZM10.4399 13.887C10.4399 15.5096 10.4399 17.1202 10.4399 18.7284C10.5841 18.7548 10.6803 18.6971 10.7789 18.6082C11.75 17.7139 12.5553 16.6875 13.1755 15.5216C13.3582 15.1779 13.5192 14.8221 13.6971 14.4591C12.6226 14.1154 11.5481 13.9255 10.4399 13.887ZM6.32212 14.4615C6.33655 14.4976 6.34857 14.5288 6.36059 14.5577C7.02645 16.125 7.99039 17.4808 9.2452 18.6322C9.34136 18.7187 9.43751 18.7476 9.56011 18.7284C9.56011 17.1178 9.56011 15.5096 9.56011 13.9014C8.9952 13.8341 6.94712 14.1875 6.32212 14.4615ZM9.56011 6.10096C9.56011 4.48558 9.56011 2.8774 9.56011 1.26923C8.97597 1.3149 6.47116 4.69711 6.37501 5.55769C7.07453 5.83173 8.97116 6.15625 9.56011 6.10096ZM10.4399 1.24519C10.4399 2.88462 10.4399 4.49279 10.4399 6.11298C11.5361 6.07452 12.5962 5.88942 13.6394 5.5601C13.6298 5.52644 13.625 5.50721 13.6178 5.49038C12.9183 3.86779 11.9063 2.47596 10.5769 1.3125C10.5433 1.28365 10.4952 1.27163 10.4399 1.24519ZM12.0337 1.4976C13.0649 2.61058 13.875 3.86298 14.4615 5.25721C14.8678 5.14904 16.3101 4.40144 16.5385 4.17788C15.3077 2.82452 13.8125 1.92308 12.0337 1.4976ZM7.96395 1.4976C6.1803 1.92548 4.6851 2.82692 3.45434 4.1899C4.1202 4.62019 4.8077 4.97596 5.53847 5.26442C6.12741 3.85817 6.93751 2.61058 7.96395 1.4976ZM12.1154 18.4952C13.8822 18.0361 15.3414 17.1418 16.5409 15.8125C16.1298 15.5048 14.8005 14.8221 14.4904 14.7596C13.9279 16.1322 13.1418 17.3702 12.1154 18.4952ZM3.45434 15.8077C4.65866 17.1394 6.1178 18.0337 7.85337 18.4736C6.85337 17.3654 6.06972 16.125 5.50241 14.7476C4.77885 15.0385 4.10578 15.387 3.45434 15.8077Z" fill="#333333"/>
</g>
<defs>
<clipPath id="clip0">
<path d="M0 0H20V20H0V0Z" fill="white"/>
</clipPath>
</defs>
</svg>
