<svg width="40" height="40" viewBox="0 0 40 40" fill="none" xmlns="http://www.w3.org/2000/svg">
<path fill-rule="evenodd" clip-rule="evenodd" d="M27.6131 12.5C28.1554 13.1231 28.6805 13.7265 29.2144 14.3399C29.1621 14.4037 29.1184 14.4614 29.0707 14.5147C26.9979 16.8311 24.9255 19.148 22.8513 21.4627C21.5008 22.9699 20.1467 24.4732 18.7956 25.9796C18.1958 26.6484 17.5998 27.3212 17.0009 27.991C16.931 28.0691 16.8575 28.1448 16.7791 28.2121C16.3454 28.5849 15.9931 28.5953 15.5438 28.2454C15.4442 28.1679 15.35 28.0789 15.2639 27.9835C13.6002 26.1384 11.9381 24.2916 10.2758 22.4449C10.249 22.4151 10.2241 22.3831 10.2144 22.3715C10.7587 21.7715 11.2984 21.1765 11.8402 20.5793C13.2439 22.1387 14.6823 23.7367 16.132 25.3473C19.9672 21.0559 23.7793 16.7899 27.6131 12.5Z" fill="#52CF70"/>
<path fill-rule="evenodd" clip-rule="evenodd" d="M20 38C29.9411 38 38 29.9411 38 20C38 10.0589 29.9411 2 20 2C10.0589 2 2 10.0589 2 20C2 29.9411 10.0589 38 20 38Z" stroke="#52CF70" stroke-width="3"/>
</svg>
