<svg width="20" height="19" viewBox="0 0 20 19" fill="none" xmlns="http://www.w3.org/2000/svg">
<path d="M10.4237 4.8821H0.830156C0.371655 4.8821 0 5.25394 0 5.71256V18.1695C0 18.6282 0.371655 19 0.830156 19H13.2825C13.741 19 14.1127 18.6282 14.1127 18.1695V10.5873L12.4523 12.2482V17.3391H1.66031V6.54303H8.76341L10.4237 4.8821Z" fill="#222222"/>
<path d="M15.0608 1.41771L18.5828 4.94107L10.9517 12.575L7.42965 9.05166L15.0608 1.41771Z" fill="#222222"/>
<path d="M16.2348 0.243237C16.559 -0.0810792 17.0846 -0.0810792 17.4088 0.243237L19.7569 2.59215C20.081 2.91646 20.081 3.44228 19.7569 3.7666L19.1698 4.35383L15.6478 0.830465L16.2348 0.243237Z" fill="#222222"/>
<path d="M5.66863 14.3368L6.84265 9.63894L10.3647 13.1623L5.66863 14.3368Z" fill="#222222"/>
</svg>
