<svg width="20" height="17" viewBox="0 0 20 17" fill="none" xmlns="http://www.w3.org/2000/svg">
<path d="M9.70061 14.7143C9.70061 15.4992 9.0593 16.1429 8.25921 16.1429C7.45911 16.1429 6.8178 15.4992 6.8178 14.7143C6.8178 13.9293 7.45911 13.2857 8.25921 13.2857C9.0593 13.2857 9.70061 13.9293 9.70061 14.7143Z" stroke="#222222" stroke-width="1.42857"/>
<path d="M16.1677 14.7143C16.1677 15.4992 15.5263 16.1429 14.7262 16.1429C13.9262 16.1429 13.2848 15.4992 13.2848 14.7143C13.2848 13.9293 13.9262 13.2857 14.7262 13.2857C15.5263 13.2857 16.1677 13.9293 16.1677 14.7143Z" stroke="#222222" stroke-width="1.42857"/>
<path fill-rule="evenodd" clip-rule="evenodd" d="M0.714355 1.14286C0.714355 0.74837 1.03607 0.428574 1.43292 0.428574H3.65871C4.16523 0.428574 4.60341 0.779166 4.71165 1.27104L5.01303 2.64056H18.2073C18.9187 2.64056 19.435 3.3135 19.2468 3.99544L18.0068 8.48853C17.8783 8.9539 17.4528 9.2765 16.9673 9.2765H6.78771L7.04123 10.4286H16.5228C16.9196 10.4286 17.2413 10.7484 17.2413 11.1429C17.2413 11.5373 16.9196 11.8571 16.5228 11.8571H6.75205C6.24553 11.8571 5.80734 11.5066 5.6991 11.0147L5.19734 8.73457L3.73703 3.5272L3.36952 1.85715H1.43292C1.03607 1.85715 0.714355 1.53735 0.714355 1.14286ZM6.44062 7.84793H16.6933L17.7362 4.06913H5.38093L6.44062 7.84793Z" fill="#222222"/>
</svg>
