<svg width="34" height="11" viewBox="0 0 34 11" fill="none" xmlns="http://www.w3.org/2000/svg">
<path fill-rule="evenodd" clip-rule="evenodd" d="M14.7392 10.817H11.9648L13.6988 0.190247H16.4731L14.7392 10.817Z" fill="#0D47A1"/>
<path fill-rule="evenodd" clip-rule="evenodd" d="M9.63085 0.190247L6.98562 7.49914L6.67293 5.92519L6.67321 5.92576L5.7394 1.14735C5.7394 1.14735 5.62681 0.190247 4.42334 0.190247H0.0510232L0 0.369899C0 0.369899 1.33744 0.647336 2.90177 1.58511L5.31212 10.817H8.20277L12.6167 0.190247H9.63085Z" fill="#0D47A1"/>
<path fill-rule="evenodd" clip-rule="evenodd" d="M31.4526 10.817H34.0001L31.779 0.190277H29.5485C28.5184 0.190277 28.2675 0.982225 28.2675 0.982225L24.1304 10.817H27.0219L27.6005 9.23884H31.1274L31.4526 10.817ZM28.3998 7.05768L29.8578 3.0806L30.6776 7.05768H28.3998Z" fill="#0D47A1"/>
<path fill-rule="evenodd" clip-rule="evenodd" d="M24.3472 2.74566L24.7428 0.463059C24.7428 0.463059 23.5211 0 22.2475 0C20.8707 0 17.6013 0.600356 17.6013 3.518C17.6013 6.26366 21.4385 6.29777 21.4385 7.73926C21.4385 9.18074 17.9969 8.9232 16.8613 8.01385L16.4482 10.3996C16.4482 10.3996 17.6871 11 19.5803 11C21.4733 11 24.3298 10.0219 24.3298 7.36176C24.3298 4.59875 20.458 4.3415 20.458 3.14022C20.458 1.93894 23.1597 2.09329 24.3472 2.74566Z" fill="#0D47A1"/>
<path fill-rule="evenodd" clip-rule="evenodd" d="M6.67321 5.92576L5.7394 1.14735C5.7394 1.14735 5.62681 0.190247 4.42334 0.190247H0.0510232L0 0.369899C0 0.369899 2.10164 0.804532 4.11777 2.43164C6.0444 3.9871 6.67321 5.92576 6.67321 5.92576Z" fill="#FFDCB2"/>
</svg>
