<svg width="110" height="32" viewBox="0 0 110 32" fill="none" xmlns="http://www.w3.org/2000/svg">
<path d="M0 23.8345L4.16281 0H9.72433L6.39408 18.9531H15.6522L14.7863 23.8345H0Z" fill="white"/>
<path d="M38.1522 11.0811L38.8834 6.94244H41.5092L42.2737 2.42758H47.4587L46.6943 6.94244H50.2174L49.4862 11.0811H46.0627L44.8662 17.7507C44.844 17.9103 44.8219 18.0814 44.7997 18.2638C44.7997 18.4234 44.7997 18.5602 44.7997 18.6742C44.7997 19.2443 44.9548 19.6319 45.265 19.8371C45.5753 20.0424 45.9963 20.145 46.5281 20.145C46.794 20.145 47.0488 20.1222 47.2925 20.0766C47.5584 20.031 47.7911 19.9854 47.9905 19.9397L47.492 23.8731C47.1817 24.01 46.7386 24.124 46.1625 24.2152C45.6085 24.3292 45.0767 24.3862 44.5671 24.3862C42.9717 24.3862 41.7086 24.0556 40.778 23.3943C39.8695 22.733 39.4152 21.6841 39.4152 20.2476C39.4152 19.974 39.4263 19.6661 39.4485 19.3241C39.4928 18.9592 39.5482 18.6172 39.6147 18.298L40.8777 11.0811H38.1522Z" fill="white"/>
<path d="M50.2174 11.0811L50.9486 6.94244H53.5744L54.3389 2.42758H59.5239L58.7594 6.94244H62.2826L61.5514 11.0811H58.1279L56.9314 17.7507C56.9092 17.9103 56.8871 18.0814 56.8649 18.2638C56.8649 18.4234 56.8649 18.5602 56.8649 18.6742C56.8649 19.2443 57.02 19.6319 57.3302 19.8371C57.6404 20.0424 58.0614 20.145 58.5932 20.145C58.8591 20.145 59.114 20.1222 59.3577 20.0766C59.6236 20.031 59.8563 19.9854 60.0557 19.9397L59.5571 23.8731C59.2469 24.01 58.8038 24.124 58.2276 24.2152C57.6737 24.3292 57.1419 24.3862 56.6322 24.3862C55.0368 24.3862 53.7738 24.0556 52.8432 23.3943C51.9347 22.733 51.4804 21.6841 51.4804 20.2476C51.4804 19.974 51.4915 19.6661 51.5137 19.3241C51.558 18.9592 51.6134 18.6172 51.6799 18.298L52.9429 11.0811H50.2174Z" fill="white"/>
<ellipse cx="26.1413" cy="13.4069" rx="10.8152" ry="10.9793" fill="white"/>
<path d="M21.9359 12.6234C21.8642 12.5109 21.75 12.4116 21.5935 12.3255C21.4435 12.2394 21.274 12.1964 21.0848 12.1964C20.8761 12.1964 20.6837 12.2394 20.5077 12.3255C20.3316 12.405 20.1783 12.5175 20.0479 12.6632C19.924 12.8088 19.8261 12.9777 19.7544 13.1697C19.6827 13.355 19.6468 13.5503 19.6468 13.7556C19.6468 13.8946 19.6664 14.0303 19.7055 14.1628C19.7511 14.2886 19.8164 14.4011 19.9011 14.5004C19.9859 14.5931 20.0935 14.6692 20.224 14.7288C20.3609 14.7884 20.5207 14.8182 20.7033 14.8182C20.9381 14.8182 21.137 14.7752 21.3001 14.6891C21.4631 14.603 21.6033 14.4971 21.7207 14.3713L22.4642 15.3843C22.2098 15.616 21.9229 15.8014 21.6033 15.9404C21.2837 16.0728 20.9153 16.139 20.4979 16.139C20.1457 16.139 19.8229 16.0894 19.5294 15.9901C19.2359 15.8841 18.9848 15.7352 18.7761 15.5432C18.574 15.3512 18.4142 15.1228 18.2968 14.8579C18.1859 14.5931 18.1305 14.2952 18.1305 13.9641C18.1305 13.5603 18.2022 13.1763 18.3457 12.8121C18.4892 12.4414 18.6914 12.117 18.9522 11.8389C19.2131 11.5542 19.5261 11.3291 19.8914 11.1636C20.2631 10.9914 20.674 10.9054 21.124 10.9054C21.4957 10.9054 21.8414 10.9683 22.1609 11.0941C22.487 11.2199 22.7414 11.4119 22.924 11.6701L21.9359 12.6234Z" fill="#EB2727"/>
<path d="M24.9533 16.139C24.6011 16.139 24.2718 16.0894 23.9652 15.9901C23.6652 15.8908 23.4044 15.7484 23.1826 15.563C22.9674 15.371 22.7946 15.1426 22.6641 14.8778C22.5402 14.6063 22.4783 14.3018 22.4783 13.9641C22.4783 13.5537 22.5467 13.163 22.6837 12.7923C22.8207 12.4215 23.0163 12.0971 23.2707 11.819C23.5315 11.541 23.8446 11.3192 24.2098 11.1537C24.575 10.9881 24.9891 10.9054 25.4522 10.9054C25.8109 10.9054 26.1435 10.955 26.45 11.0543C26.7565 11.1537 27.0207 11.2993 27.2424 11.4913C27.4641 11.6767 27.637 11.9051 27.7609 12.1766C27.8913 12.4414 27.9565 12.7426 27.9565 13.0803C27.9565 13.4974 27.8881 13.8913 27.7511 14.2621C27.6141 14.6328 27.4152 14.9572 27.1544 15.2353C26.8935 15.5134 26.5772 15.7352 26.2055 15.9007C25.8402 16.0596 25.4228 16.139 24.9533 16.139ZM26.4109 13.2491C26.4109 12.9512 26.3196 12.7029 26.137 12.5043C25.9609 12.3057 25.7098 12.2063 25.3837 12.2063C25.175 12.2063 24.9859 12.2494 24.8163 12.3354C24.6468 12.4215 24.5033 12.5374 24.3859 12.683C24.2685 12.8287 24.1772 12.9975 24.112 13.1895C24.0468 13.3815 24.0141 13.5834 24.0141 13.7953C24.0141 14.0932 24.1022 14.3415 24.2783 14.5401C24.4544 14.7321 24.7054 14.8281 25.0315 14.8281C25.2402 14.8281 25.4294 14.7884 25.5989 14.709C25.7685 14.6229 25.912 14.507 26.0294 14.3614C26.1533 14.2157 26.2478 14.0469 26.3131 13.8549C26.3783 13.6629 26.4109 13.461 26.4109 13.2491Z" fill="#EB2727"/>
<path d="M28.4902 12.0772C28.5163 11.9514 28.5424 11.7892 28.5684 11.5906C28.6011 11.392 28.6239 11.2132 28.6369 11.0543H30.1337C30.1271 11.1338 30.1141 11.2497 30.0945 11.4019C30.0815 11.5476 30.0684 11.6701 30.0554 11.7694H30.075C30.1467 11.6634 30.2315 11.5608 30.3293 11.4615C30.4271 11.3556 30.5348 11.2629 30.6521 11.1834C30.7761 11.104 30.913 11.0411 31.063 10.9948C31.213 10.9484 31.3761 10.9252 31.5521 10.9252C31.9369 10.9252 32.2434 11.008 32.4717 11.1735C32.7065 11.3324 32.8695 11.541 32.9608 11.7992C33.15 11.541 33.375 11.3324 33.6358 11.1735C33.8967 11.008 34.2097 10.9252 34.575 10.9252C34.8554 10.9252 35.0967 10.9683 35.2989 11.0543C35.5011 11.1404 35.6674 11.2563 35.7978 11.4019C35.9347 11.5476 36.0326 11.7164 36.0913 11.9084C36.1565 12.0938 36.1891 12.2858 36.1891 12.4844C36.1891 12.5639 36.1858 12.6433 36.1793 12.7228C36.1728 12.8022 36.163 12.8783 36.15 12.9512L35.6119 16H34.0467L34.5065 13.3186C34.5391 13.1663 34.5554 13.0273 34.5554 12.9015C34.5554 12.7095 34.5065 12.5506 34.4087 12.4248C34.3108 12.2924 34.1478 12.2262 33.9195 12.2262C33.7826 12.2262 33.6587 12.2593 33.5478 12.3255C33.4369 12.3851 33.3391 12.4679 33.2543 12.5738C33.1695 12.6731 33.1011 12.7923 33.0489 12.9313C32.9967 13.0637 32.9576 13.1994 32.9315 13.3385L32.4717 16H30.8967L31.3858 13.1697C31.4054 13.0703 31.4152 12.9777 31.4152 12.8916C31.4152 12.6996 31.3663 12.5407 31.2684 12.4149C31.1771 12.2891 31.0304 12.2262 30.8282 12.2262C30.5608 12.2262 30.3424 12.3354 30.1728 12.5539C30.0098 12.7658 29.9021 13.0207 29.85 13.3186L29.3804 16H27.8152L28.4902 12.0772Z" fill="#EB2727"/>
<path d="M18.0435 15.0972C18.0435 15.2376 18.0177 15.368 17.9661 15.4884C17.921 15.6088 17.8565 15.7158 17.7726 15.8094C17.6888 15.903 17.5856 15.9766 17.463 16.0301C17.3469 16.0836 17.2212 16.1104 17.0857 16.1104C16.8213 16.1104 16.6052 16.0334 16.4375 15.8796C16.2763 15.7191 16.1957 15.5118 16.1957 15.2577C16.1957 14.9634 16.2892 14.7193 16.4762 14.5254C16.6633 14.3315 16.8955 14.2345 17.1728 14.2345C17.4243 14.2345 17.6307 14.3181 17.792 14.4853C17.9597 14.6458 18.0435 14.8497 18.0435 15.0972Z" fill="#EB2727"/>
<path d="M65.6689 16.9041C65.6466 16.9944 65.6355 17.0959 65.6355 17.2088C65.6355 17.6828 65.7358 18.1116 65.9365 18.4953C66.1595 18.8564 66.4382 19.1724 66.7726 19.4433C67.1294 19.6915 67.5195 19.8834 67.9432 20.0188C68.3891 20.1542 68.8462 20.2219 69.3144 20.2219C70.1617 20.2219 70.9086 20.0639 71.5552 19.748C72.2018 19.432 72.7815 19.0031 73.2943 18.4614L76.6723 21.136C75.602 22.2871 74.4092 23.1223 73.0937 23.6414C71.7782 24.1379 70.3623 24.3862 68.8462 24.3862C67.6868 24.3862 66.6054 24.2169 65.602 23.8784C64.621 23.5624 63.7626 23.0884 63.0268 22.4564C62.291 21.8019 61.7113 21.0006 61.2877 20.0527C60.864 19.1047 60.6522 18.0213 60.6522 16.8025C60.6522 15.358 60.8975 14.015 61.388 12.7737C61.9008 11.5097 62.592 10.415 63.4616 9.48966C64.3534 8.56426 65.4125 7.84201 66.6388 7.32288C67.8651 6.78119 69.2141 6.51035 70.6856 6.51035C71.7782 6.51035 72.7704 6.66834 73.6622 6.98433C74.5764 7.30031 75.3568 7.76301 76.0034 8.37241C76.65 8.95925 77.1516 9.69279 77.5084 10.573C77.8651 11.4533 78.0435 12.469 78.0435 13.6201C78.0435 14.0263 77.9989 14.5455 77.9097 15.1774C77.8428 15.7868 77.7425 16.3624 77.6087 16.9041H65.6689ZM73.2609 13.5862C73.2832 13.4734 73.2943 13.3605 73.2943 13.2476C73.2943 13.1348 73.2943 13.0219 73.2943 12.9091C73.2943 12.1643 73.0268 11.5436 72.4917 11.047C71.9788 10.5505 71.2319 10.3022 70.2509 10.3022C69.6489 10.3022 69.1026 10.415 68.6121 10.6408C68.1438 10.8439 67.7314 11.1034 67.3746 11.4194C67.0179 11.7354 66.728 12.0853 66.5051 12.469C66.2821 12.8527 66.126 13.2251 66.0368 13.5862H73.2609Z" fill="white"/>
<path d="M99.0454 26.3751C98.5526 27.2614 98.0597 28.0569 97.5669 28.7614C97.0965 29.466 96.57 30.0569 95.9875 30.5341C95.4275 31.0114 94.7778 31.375 94.0386 31.625C93.2993 31.875 92.4368 32 91.4511 32C90.3982 32 89.4798 31.875 88.6957 31.625L89.5022 27.1251C89.995 27.3296 90.5214 27.4319 91.0815 27.4319C91.8656 27.4319 92.4704 27.2274 92.8961 26.8183C93.3441 26.4319 93.7697 25.8751 94.173 25.1479L94.9795 23.7502L91.1151 6.84138H96.9956L98.6758 17.9548H98.743L104.288 6.84138H110L99.0454 26.3751Z" fill="white"/>
<path d="M84.7909 9.44452C85.3261 8.58019 85.9615 7.87508 86.6973 7.32919C87.4554 6.78329 88.3584 6.51035 89.4063 6.51035C89.607 6.51035 89.8077 6.52172 90.0083 6.54446C90.2313 6.56721 90.4097 6.60133 90.5435 6.64682L89.6739 11.4916C89.4286 11.4234 89.1945 11.3779 88.9716 11.3552C88.7486 11.3324 88.5368 11.321 88.3361 11.321C87.5557 11.321 86.898 11.4575 86.3629 11.7305C85.8277 12.0034 85.3818 12.3446 85.0251 12.754C84.6906 13.1407 84.4342 13.5615 84.2558 14.0164C84.0998 14.4713 83.9883 14.8693 83.9214 15.2105L82.4164 23.9448H77.0652L79.4398 10.4681C79.529 10.0359 79.6181 9.47864 79.7073 8.79627C79.8188 8.11391 79.8968 7.49978 79.9414 6.95388H85.0251C85.0251 7.06761 85.0139 7.2382 84.9916 7.46566C84.9693 7.67037 84.9359 7.89783 84.8913 8.14803C84.869 8.37548 84.8355 8.61431 84.7909 8.86451C84.7687 9.09197 84.7464 9.28531 84.7241 9.44452H84.7909Z" fill="white"/>
</svg>
