<svg width="16" height="15" viewBox="0 0 16 15" fill="none" xmlns="http://www.w3.org/2000/svg">
<path fill-rule="evenodd" clip-rule="evenodd" d="M3.15707 7.95637C3.37956 7.52186 3.97153 7.42811 4.32271 7.77177L7.45347 10.8356C7.80748 11.182 7.70679 11.7667 7.2563 11.9804L1.04853 14.9259C0.422747 15.2228 -0.231504 14.5742 0.0800572 13.9657L3.15707 7.95637ZM0.909933 14.1119L2.99162 10.0465V13.1242L0.909933 14.1119ZM5.51519 11.9268L4.22114 12.5408V8.79187L5.51519 10.0583V11.9268Z" fill="#EC1919"/>
<path fill-rule="evenodd" clip-rule="evenodd" d="M6.42213 8.74343C6.22513 8.5529 6.22326 8.24215 6.41796 8.04936L11.3418 3.17373C11.5365 2.98094 11.8541 2.97911 12.0511 3.16964C12.2481 3.36018 12.2499 3.67093 12.0552 3.86372L7.13137 8.73935C6.93667 8.93214 6.61913 8.93397 6.42213 8.74343Z" fill="#EC1919"/>
<path fill-rule="evenodd" clip-rule="evenodd" d="M9.4531 7.75177C9.36704 7.5886 9.43244 7.38806 9.59918 7.30384L11.1037 6.54391C11.2704 6.45969 11.4754 6.5237 11.5614 6.68686C11.6475 6.85003 11.5821 7.05057 11.4153 7.13479L9.91081 7.89473C9.74408 7.97894 9.53915 7.91494 9.4531 7.75177Z" fill="#EC1919"/>
<path fill-rule="evenodd" clip-rule="evenodd" d="M8.61279 3.70038C8.78486 3.7736 8.86371 3.96946 8.78889 4.13785L8.14178 5.59442C8.06697 5.76281 7.86683 5.83997 7.69476 5.76676C7.52269 5.69354 7.44384 5.49768 7.51866 5.32929L8.16577 3.87272C8.24058 3.70433 8.44072 3.62717 8.61279 3.70038Z" fill="#EC1919"/>
<path fill-rule="evenodd" clip-rule="evenodd" d="M3.90881 5.02285C4.08532 4.96057 4.28 5.05011 4.34364 5.22285L4.75192 6.33101C4.81556 6.50375 4.72407 6.69426 4.54756 6.75654C4.37105 6.81882 4.17637 6.72928 4.11273 6.55655L3.70445 5.44838C3.64081 5.27565 3.73231 5.08513 3.90881 5.02285Z" fill="#EC1919"/>
<path fill-rule="evenodd" clip-rule="evenodd" d="M5.66908 2.25838C5.91356 2.13099 6.21728 2.22167 6.34746 2.46092C7.0932 3.83152 6.95099 5.14232 6.63402 6.08786C6.47616 6.5539 6.26667 6.95599 6.10942 7.21537C6.02769 7.3496 5.95133 7.4616 5.90086 7.53185C5.87411 7.569 5.85042 7.60049 5.83586 7.6194C5.82784 7.6298 5.82053 7.63912 5.81637 7.64435C5.81393 7.64742 5.81151 7.65043 5.81027 7.65197L5.80819 7.65455L5.80739 7.65553L5.80705 7.65594C5.8069 7.65613 5.80676 7.6563 5.41527 7.34956L5.80676 7.6563C5.63365 7.86789 5.31804 7.90209 5.10182 7.73268C4.88594 7.56354 4.85077 7.25537 5.02296 7.0438C5.02307 7.04367 5.02317 7.04355 5.02328 7.04342L5.023 7.04375L5.02295 7.04382C5.0229 7.04388 5.02283 7.04397 5.02288 7.04391L5.02291 7.04387C5.02293 7.04385 5.02295 7.04383 5.02296 7.0438C5.0234 7.04326 5.0236 7.04301 5.0245 7.04188C5.02714 7.03856 5.02986 7.03511 5.03481 7.02867C5.04621 7.01387 5.06024 6.99529 5.08056 6.96698C5.12423 6.9063 5.17939 6.82583 5.24719 6.71385C5.389 6.48083 5.55063 6.17557 5.68097 5.78189C5.94041 5.00797 6.04296 3.98979 5.46212 2.92226C5.33194 2.68301 5.4246 2.38578 5.66908 2.25838ZM5.02338 7.04329C5.02335 7.04333 5.02331 7.04338 5.02328 7.04342L5.02331 7.04338L5.02338 7.04329ZM5.02338 7.04329C5.02343 7.04324 5.02347 7.04318 5.02352 7.04312C5.02352 7.04312 5.02352 7.04312 5.02352 7.04312L5.02338 7.04329Z" fill="#EC1919"/>
<path fill-rule="evenodd" clip-rule="evenodd" d="M13.2368 9.93988C13.3948 9.71724 13.3385 9.41142 13.1109 9.25681C11.8077 8.37111 10.4608 8.35539 9.46407 8.5524C8.97261 8.65109 8.53998 8.80747 8.2583 8.92984C8.11249 8.9935 7.98987 9.05456 7.91266 9.09536C7.87182 9.11699 7.83708 9.13632 7.81618 9.14824C7.80468 9.15482 7.79437 9.16084 7.78857 9.16426C7.78516 9.16627 7.78183 9.16826 7.78012 9.16929L7.77726 9.17101L7.77617 9.17167L7.77571 9.17195C7.77551 9.17208 7.77531 9.1722 8.04062 9.58869L7.77531 9.1722C7.54026 9.31559 7.4685 9.6183 7.61502 9.84832C7.76132 10.078 8.06991 10.1484 8.30482 10.0059C8.30496 10.0058 8.30511 10.0057 8.30525 10.0056L8.30487 10.0058L8.3048 10.0059C8.30473 10.0059 8.30464 10.006 8.3047 10.0059L8.30474 10.0059C8.30477 10.0059 8.30479 10.0059 8.30482 10.0059C8.30542 10.0055 8.3057 10.0053 8.30695 10.0046C8.31063 10.0024 8.31445 10.0002 8.32157 9.99612C8.33792 9.98677 8.35843 9.97532 8.38955 9.9589C8.45624 9.92359 8.54438 9.87943 8.66598 9.82668C8.9191 9.71623 9.24784 9.595 9.66265 9.51456C10.4785 9.3533 11.5237 9.3732 12.5388 10.0631C12.7663 10.2177 13.0788 10.1625 13.2368 9.93988ZM8.30538 10.0055C8.30534 10.0055 8.30529 10.0056 8.30525 10.0056L8.30529 10.0056L8.30538 10.0055ZM8.30538 10.0055C8.30545 10.0055 8.30551 10.0054 8.30558 10.0054C8.30558 10.0054 8.30558 10.0054 8.30558 10.0054L8.30538 10.0055Z" fill="#EC1919"/>
<ellipse cx="3.67249" cy="4.02172" rx="0.323557" ry="0.31664" fill="#EC1919"/>
<ellipse cx="2.50752" cy="3.19799" rx="0.323557" ry="0.31664" fill="#EC1919"/>
<ellipse cx="8.88197" cy="2.69164" rx="0.323557" ry="0.31664" fill="#EC1919"/>
<ellipse cx="9.59321" cy="1.26635" rx="0.323557" ry="0.31664" fill="#EC1919"/>
<ellipse cx="12.4089" cy="6.42748" rx="0.323557" ry="0.31664" fill="#EC1919"/>
<ellipse cx="14.0588" cy="5.79467" rx="0.323557" ry="0.31664" fill="#EC1919"/>
<ellipse cx="10.9525" cy="11.5891" rx="0.323557" ry="0.31664" fill="#EC1919"/>
<ellipse cx="11.7615" cy="12.4753" rx="0.323557" ry="0.31664" fill="#EC1919"/>
<path d="M4.13083 0.27448C4.15994 0.186791 4.28398 0.186791 4.31309 0.27448L4.4907 0.809404C4.50374 0.84867 4.54046 0.875171 4.58183 0.875171H5.15208C5.24561 0.875171 5.28395 0.99526 5.20773 1.04945L4.74998 1.37492C4.71559 1.39937 4.70119 1.44339 4.71449 1.48343L4.89017 2.01257C4.91942 2.10067 4.81905 2.17488 4.7434 2.12109L4.27761 1.7899C4.24429 1.76622 4.19963 1.76622 4.16632 1.7899L3.70053 2.12109C3.62487 2.17488 3.5245 2.10067 3.55375 2.01257L3.72944 1.48343C3.74273 1.44339 3.72833 1.39937 3.69395 1.37492L3.2362 1.04945C3.15998 0.995261 3.19832 0.875171 3.29184 0.875171H3.86209C3.90347 0.875171 3.94019 0.84867 3.95323 0.809404L4.13083 0.27448Z" fill="#EC1919"/>
<path d="M13.45 0.939519C13.4792 0.85183 13.6032 0.85183 13.6323 0.939519L13.8099 1.47444C13.8229 1.51371 13.8597 1.54021 13.901 1.54021H14.4713C14.5648 1.54021 14.6032 1.6603 14.5269 1.71449L14.0692 2.03996C14.0348 2.0644 14.0204 2.10843 14.0337 2.14847L14.2094 2.67761C14.2386 2.76571 14.1383 2.83992 14.0626 2.78613L13.5968 2.45494C13.5635 2.43126 13.5188 2.43126 13.4855 2.45494L13.0197 2.78613C12.9441 2.83992 12.8437 2.76571 12.873 2.67761L13.0486 2.14847C13.0619 2.10843 13.0475 2.0644 13.0132 2.03996L12.5554 1.71449C12.4792 1.6603 12.5175 1.54021 12.6111 1.54021H13.1813C13.2227 1.54021 13.2594 1.51371 13.2724 1.47444L13.45 0.939519Z" fill="#EC1919"/>
<path d="M14.6144 10.2169C14.6435 10.1292 14.7675 10.1292 14.7966 10.2169L14.9742 10.7518C14.9873 10.7911 15.024 10.8176 15.0654 10.8176H15.6356C15.7291 10.8176 15.7675 10.9376 15.6912 10.9918L15.2335 11.3173C15.1991 11.3417 15.1847 11.3858 15.198 11.4258L15.3737 11.955C15.4029 12.0431 15.3026 12.1173 15.2269 12.0635L14.7611 11.7323C14.7278 11.7086 14.6832 11.7086 14.6498 11.7323L14.184 12.0635C14.1084 12.1173 14.008 12.0431 14.0373 11.955L14.213 11.4258C14.2263 11.3858 14.2119 11.3417 14.1775 11.3173L13.7197 10.9918C13.6435 10.9376 13.6818 10.8176 13.7754 10.8176H14.3456C14.387 10.8176 14.4237 10.7911 14.4367 10.7518L14.6144 10.2169Z" fill="#EC1919"/>
</svg>
